<svg xmlns="http://www.w3.org/2000/svg" viewBox="0 0 22.083 22.092"><defs><style>.cls-1{fill:#6a6a7f;}</style></defs><g id="Layer_2" data-name="Layer 2"><g id="Layer_1-2" data-name="Layer 1"><path class="cls-1" d="M13.068,14.325A8.161,8.161,0,0,1,1.537,12.769,8.03,8.03,0,0,1,12.956,1.7,8.136,8.136,0,0,1,14.31,13.067c.4.447.73.933,1.48.906a1.466,1.466,0,0,1,.9.478q2.443,2.388,4.84,4.825a1.6,1.6,0,1,1-2.248,2.278q-2.431-2.4-4.828-4.838a1.487,1.487,0,0,1-.486-.9A1.8,1.8,0,0,0,13.068,14.325ZM8.033,1.605a6.416,6.416,0,1,0,6.4,6.433A6.4,6.4,0,0,0,8.033,1.605Z"/><path class="cls-1" d="M8.249,2.674a5.371,5.371,0,0,1,5.1,5.174c0,.425-.126.766-.6.789s-.632-.286-.674-.721A4,4,0,0,0,8.194,3.974C7.748,3.932,7.37,3.8,7.388,3.3,7.407,2.753,7.811,2.629,8.249,2.674Z"/></g></g></svg>