<svg xmlns="http://www.w3.org/2000/svg" viewBox="0 0 31.909 26.75"><defs><style>.cls-1{fill:#6a6a7f;}</style></defs><g id="Layer_2" data-name="Layer 2"><g id="Layer_1-2" data-name="Layer 1"><path class="cls-1" d="M14.36,11.258l1.077-.864a.718.718,0,0,1,1.15.121c.444.552.891,1.1,1.333,1.653a.691.691,0,0,1-.117,1.124c-.316.258-.632.517-.953.77-.1.081-.156.146-.092.292a7.032,7.032,0,0,1,.585,2.638c.006.182.087.243.258.274.4.073.8.165,1.2.257a.722.722,0,0,1,.6.967q-.224,1.037-.452,2.073a.708.708,0,0,1-.969.621c-.486-.108-.97-.218-1.405-.316-.442.579-.857,1.137-1.291,1.681a3.975,3.975,0,0,1-.528.509.223.223,0,0,0-.059.324c.219.428.425.862.63,1.3a.646.646,0,0,1-.309.938q-1.044.528-2.1,1.031a.671.671,0,0,1-.956-.343q-.33-.64-.631-1.3a.244.244,0,0,0-.31-.17,7.281,7.281,0,0,1-2.571.014A.209.209,0,0,0,8.18,25q-.289.631-.594,1.254a.712.712,0,0,1-1.092.38c-.624-.3-1.243-.6-1.869-.888a.745.745,0,0,1-.4-1.147c.211-.38.373-.786.564-1.177.059-.12.073-.206-.045-.3a7.808,7.808,0,0,1-1.767-2.192l-1.449.326c-.589.134-.868-.039-1.006-.63-.164-.7-.328-1.395-.486-2.093A.668.668,0,0,1,.6,17.617c.423-.1.846-.208,1.271-.3.146-.031.216-.084.221-.245A7.858,7.858,0,0,1,2.655,14.4a.268.268,0,0,0-.069-.237c-.334-.28-.681-.542-1.021-.815a.67.67,0,0,1-.13-1.042q.67-.875,1.359-1.736a.71.71,0,0,1,1.13-.136c.368.279.727.57,1.036.813.692-.362,1.343-.712,2.005-1.042a3.151,3.151,0,0,1,.668-.227A.232.232,0,0,0,7.845,9.7c-.012-.4-.006-.8,0-1.2a.677.677,0,0,1,.713-.751q1.185-.021,2.369,0a.662.662,0,0,1,.668.713c.009.417,0,.835,0,1.253,0,.133.025.21.175.252A7.51,7.51,0,0,1,14.36,11.258ZM9.713,20.273a2.949,2.949,0,1,0-2.948-2.979A2.981,2.981,0,0,0,9.713,20.273Z"/><path class="cls-1" d="M27.651,8.38a5.721,5.721,0,0,0-.618-.126.367.367,0,0,0-.276.117c-.322.378-.62.776-.943,1.153-.1.113-.143.191-.063.329.091.157.165.323.24.488a.7.7,0,0,1-.337.983c-.267.136-.538.264-.811.386a.649.649,0,0,1-.94-.3c-.125-.22-.183-.539-.368-.646s-.487.016-.737.013c-.3,0-.6-.025-.895-.055-.145-.015-.235.009-.3.157a4.735,4.735,0,0,1-.288.585.638.638,0,0,1-.861.286c-.3-.131-.593-.273-.886-.418a.656.656,0,0,1-.344-.887c.074-.185.165-.363.255-.541a.254.254,0,0,0-.051-.333c-.334-.379-.639-.784-.968-1.168a.35.35,0,0,0-.261-.1,5.644,5.644,0,0,0-.555.129.662.662,0,0,1-.814-.46,10.607,10.607,0,0,1-.254-1.085.616.616,0,0,1,.508-.727c.546-.066.826-.268.81-.874a4.632,4.632,0,0,1,.246-1.024.383.383,0,0,0-.075-.291,4.243,4.243,0,0,0-.395-.331.666.666,0,0,1-.106-.97c.179-.239.369-.471.561-.7a.64.64,0,0,1,1.019-.113A.684.684,0,0,0,20.2,1.9a3.953,3.953,0,0,1,1.011-.452c.158-.06.244-.131.227-.31a3.46,3.46,0,0,1,0-.381c.012-.495.216-.723.7-.747a8.66,8.66,0,0,1,.98.006c.4.027.671.255.63.639-.065.6.2.843.733.983a3.344,3.344,0,0,1,.837.444.254.254,0,0,0,.36-.018,3.6,3.6,0,0,1,.36-.29.659.659,0,0,1,.965.108q.3.354.582.721a.633.633,0,0,1-.108,1,.732.732,0,0,0-.3,1.067,4.232,4.232,0,0,1,.194,1.065c.02.148.063.225.225.244a3.067,3.067,0,0,1,.558.12.665.665,0,0,1,.468.786c-.061.32-.128.64-.206.957A.694.694,0,0,1,27.651,8.38ZM22.6,4.164a1.823,1.823,0,0,0-1.839,1.763,1.8,1.8,0,0,0,1.82,1.912,1.825,1.825,0,0,0,1.867-1.824A1.849,1.849,0,0,0,22.6,4.164Z"/><path class="cls-1" d="M30.716,18.736l.63.147a.67.67,0,0,1,.547.83c-.057.312-.121.624-.2.931a.653.653,0,0,1-.868.516c-.486-.17-.805-.121-1.054.385a3.4,3.4,0,0,1-.668.782.256.256,0,0,0-.059.355,4.762,4.762,0,0,1,.252.512.673.673,0,0,1-.321.9c-.288.153-.585.29-.884.421a.626.626,0,0,1-.882-.282,4.043,4.043,0,0,1-.267-.535.271.271,0,0,0-.312-.181c-.451.017-.9.024-1.354,0-.22-.012-.359.019-.434.246a2.482,2.482,0,0,1-.223.465.655.655,0,0,1-.906.3c-.3-.131-.593-.272-.885-.418a.64.64,0,0,1-.33-.823,4.531,4.531,0,0,1,.268-.595.246.246,0,0,0-.049-.33c-.333-.381-.64-.785-.969-1.169a.348.348,0,0,0-.256-.113,4.11,4.11,0,0,0-.5.123.689.689,0,0,1-.9-.549c-.067-.264-.134-.527-.193-.793A.716.716,0,0,1,20.5,18.9c.577-.141.562-.144.649-.723a5.048,5.048,0,0,1,.254-1,.348.348,0,0,0-.15-.495,1.952,1.952,0,0,1-.389-.337.626.626,0,0,1-.052-.825c.211-.295.435-.582.674-.855a.6.6,0,0,1,.878-.073c.421.446.771.377,1.216.043a3.518,3.518,0,0,1,.918-.4c.149-.054.225-.112.213-.285-.072-1.038.29-1.172,1.145-1.145.154,0,.309,0,.462.006.485.029.774.281.733.758a.65.65,0,0,0,.576.8,3.745,3.745,0,0,1,.959.5c.16.1.268.108.4-.024a2.963,2.963,0,0,1,.355-.3.662.662,0,0,1,.929.1c.226.26.443.529.646.808a.607.607,0,0,1-.129.914.767.767,0,0,0-.33,1.109A6.918,6.918,0,0,1,30.716,18.736Zm-4.844,1.895a1.812,1.812,0,0,0,1.862-1.8,1.871,1.871,0,0,0-1.849-1.888,1.845,1.845,0,0,0-1.837,1.8A1.8,1.8,0,0,0,25.872,20.631Z"/></g></g></svg>