<svg xmlns="http://www.w3.org/2000/svg" viewBox="0 0 24.493 28"><defs><style>.cls-1{fill:#6a6a7f;}</style></defs><g id="Layer_2" data-name="Layer 2"><g id="Layer_1-2" data-name="Layer 1"><path class="cls-1" d="M10.544,0h3.265c.238.032.475.068.713.1,1.315.159,2.64.261,3.941.487a11.936,11.936,0,0,1,4.585,1.635,2.846,2.846,0,0,1,1.439,2.567q-.055,9.287.005,18.572a2.53,2.53,0,0,1-1.3,2.309,13.1,13.1,0,0,1-5.374,1.872c-1.327.2-2.669.311-4.005.461H10.544c-.2-.031-.393-.066-.591-.092-1.492-.2-2.995-.338-4.472-.6A10.183,10.183,0,0,1,.852,25.361,1.911,1.911,0,0,1,0,23.814C.014,17.337,0,10.86.035,4.383A2.536,2.536,0,0,1,.641,2.91,4.931,4.931,0,0,1,2.092,1.834,13.816,13.816,0,0,1,6.659.459C7.946.262,9.248.15,10.544,0ZM1.5,6.544c0,1.389.033,2.705-.014,4.019a1.378,1.378,0,0,0,.816,1.4,13.17,13.17,0,0,0,2.305.957,29.85,29.85,0,0,0,13.735.36,22.268,22.268,0,0,0,3.77-1.287,1.367,1.367,0,0,0,.882-1.474c-.048-.942-.012-1.888-.012-2.832V6.556C15.945,9.368,7.775,9.368,1.5,6.544ZM22.973,19.522c-3.413,1.769-7.067,2.115-10.764,2.108S4.876,21.286,1.5,19.559c0,1.3.038,2.507-.015,3.713A1.373,1.373,0,0,0,2.3,24.666a12.671,12.671,0,0,0,2.25.938,30.1,30.1,0,0,0,13.8.376,21.843,21.843,0,0,0,3.667-1.242,1.314,1.314,0,0,0,.954-1.206C22.977,22.229,22.973,20.926,22.973,19.522ZM1.5,13.362v2.519c0,2.133.157,2.349,2.282,3.143.149.056.3.1.457.146a29.98,29.98,0,0,0,14.084.455A22.12,22.12,0,0,0,22.1,18.344a1.362,1.362,0,0,0,.889-1.47c-.047-.791-.011-1.586-.011-2.38V13.345A29.983,29.983,0,0,1,1.5,13.362ZM12.718,1.426A27.467,27.467,0,0,0,4.547,2.4,11.342,11.342,0,0,0,2.018,3.551c-.737.454-.707,1.08.015,1.573A8.037,8.037,0,0,0,3.776,6a22.31,22.31,0,0,0,6.731,1.174A26.871,26.871,0,0,0,20.678,6a7.492,7.492,0,0,0,1.7-.843c.8-.537.783-1.13-.011-1.687a5.99,5.99,0,0,0-1.2-.64A24.029,24.029,0,0,0,12.718,1.426Z"/><path class="cls-1" d="M19.378,11.468a1.153,1.153,0,0,1-1.208-1.087,1.16,1.16,0,0,1,1.187-1.109,1.1,1.1,0,1,1,.021,2.2Z"/><path class="cls-1" d="M19.365,24.506a1.159,1.159,0,0,1-1.2-1.109,1.209,1.209,0,0,1,2.412.029A1.133,1.133,0,0,1,19.365,24.506Z"/><path class="cls-1" d="M20.559,17.025a1.2,1.2,0,1,1-1.177-1.136A1.182,1.182,0,0,1,20.559,17.025Z"/></g></g></svg>